# xmcd
#
# Track frame offsets: 
#        150
#        34425
#        63309
#        91138
#        113864
#        136538
#        153181
#        188931
#        212955
#        227090
#        247583
#        267856
#        296866
#
# Disc length: 4332 seconds
#
# Revision: 0
# Processed by: cddbd v1.5.2PL0 Copyright (c) Steve Scherf et al.
# Submitted via: ExactAudioCopy v1.0b1
#
DISCID=b210ea0d
DTITLE=Various Artist - Essential Blues
DYEAR=2011
DGENRE=Blues
TTITLE0=Buddy Guy - Every Time I Sing The Blues (featuring Eric Clapto
TTITLE0=n)
TTITLE1=Otis Clay - Since I've Been Loving You
TTITLE2=Tinsley Ellis - A Quitter Never Wins
TTITLE3=B.B. King and Friends - The Thrill Is Gone (featuring Eric Clapt
TTITLE3=on)
TTITLE4=Stevie Ray Vaughan And Double Trouble - Dirty Pool
TTITLE5=Oscar Benton - Bensonhurst blues
TTITLE6=John Mayall and The Bluesbreakers - The Mists Of Time
TTITLE7=Albert Collins - Cold, Cold Feeling
TTITLE8=Taj Mahal - Here In The Dark
TTITLE9=Sam McClain - Too Proud
TTITLE10=Gary Moore - King Of The Blues
TTITLE11=Eric Clapton - Old Love
TTITLE12=Joe Bonamassa - A Quitter Never Wins
EXTD=
EXTT0=
EXTT1=
EXTT2=
EXTT3=
EXTT4=
EXTT5=
EXTT6=
EXTT7=
EXTT8=
EXTT9=
EXTT10=
EXTT11=
EXTT12=
PLAYORDER=
